# xmcd
#
# Track frame offsets:
# 150
# 20073
# 37476
# 48365
# 61540
# 84368
# 113501
# 130187
# 146125
#
# Disc length: 2171 seconds
#
#
# Revision: 0
# Processed by: cddbd v1.5.2PL0 Copyright (c) Steve Scherf et al.
# Submitted via: FreeRIP 2.951 
#
DISCID=77087909
DTITLE=Gram Parsons - Grievous Angel
DYEAR=1974
DGENRE=Rock
TTITLE0=Return Of The Grievous Angel
TTITLE1=Hearts On Fire
TTITLE2=I Can't Dance
TTITLE3=Brass Buttons
TTITLE4=$1000 Wedding
TTITLE5=Cash On The Barrelhead - Hickory Wind
TTITLE6=Love Hurts
TTITLE7=Las Vegas
TTITLE8=In My Hour Of Darkness
EXTD=
EXTT0=
EXTT1=
EXTT2=
EXTT3=
EXTT4=
EXTT5=
EXTT6=
EXTT7=
EXTT8=
PLAYORDER=
